<svg width="369" height="121" viewBox="0 0 369 121" fill="none" xmlns="http://www.w3.org/2000/svg">
<path d="M80.6396 1.00684C85.2783 0.811523 89.7461 0.860352 94.043 1.15332C98.3887 1.44629 102.344 2.10547 105.908 3.13086C109.521 4.15625 112.671 5.59668 115.356 7.45215C118.091 9.30762 120.19 11.7002 121.655 14.6299C123.12 17.5107 123.853 20.9775 123.853 25.0303C123.901 29.083 123.047 33.8193 121.289 39.2393C119.482 44.6104 116.772 49.5176 113.159 53.9609C109.595 58.4043 105.469 62.3838 100.781 65.8994C96.1426 69.415 91.1377 72.4912 85.7666 75.1279C80.4443 77.7646 75.0977 79.9863 69.7266 81.793C64.4043 83.5508 59.2529 84.918 54.2725 85.8945C49.3408 86.8223 44.9463 87.3838 41.0889 87.5791C39.8682 90.5088 38.6475 93.5117 37.4268 96.5879C36.4014 99.2246 35.3027 102.13 34.1309 105.304C32.959 108.429 31.9092 111.456 30.9814 114.386C30.2002 114.825 29.1016 115.289 27.6855 115.777C26.2695 116.266 24.6582 116.729 22.8516 117.169C21.0938 117.608 19.1895 118.023 17.1387 118.414C15.0879 118.756 13.0615 119.024 11.0596 119.22C9.10645 119.464 7.22656 119.586 5.41992 119.586C3.61328 119.586 2.02637 119.464 0.65918 119.22C1.0498 118.585 1.70898 117.169 2.63672 114.972C3.56445 112.726 4.6875 109.942 6.00586 106.622C7.32422 103.253 8.76465 99.4932 10.3271 95.3428C11.8896 91.1436 13.501 86.7734 15.1611 82.2324C16.8701 77.6426 18.5547 73.0283 20.2148 68.3896C21.9238 63.751 23.5107 59.3076 24.9756 55.0596C26.4893 50.7627 27.8564 46.8076 29.0771 43.1943C30.2979 39.5322 31.2988 36.4561 32.0801 33.9658C30.7129 34.1123 29.1992 34.3076 27.5391 34.5518C26.123 34.7959 24.4385 35.1377 22.4854 35.5771C20.5811 36.0166 18.5059 36.5781 16.2598 37.2617C16.4551 36.5781 16.6992 35.6992 16.9922 34.625C17.2852 33.502 17.6025 32.2812 17.9443 30.9629C18.2861 29.5957 18.6279 28.1797 18.9697 26.7148C19.3604 25.2012 19.751 23.7363 20.1416 22.3203C21.0205 18.9512 21.9238 15.3623 22.8516 11.5537C28.7598 9.84473 34.9365 8.28223 41.3818 6.86621C44.1162 6.28027 47.0459 5.69434 50.1709 5.1084C53.3447 4.47363 56.5918 3.8877 59.9121 3.35059C63.2812 2.81348 66.6992 2.34961 70.166 1.95898C73.6816 1.51953 77.1729 1.20215 80.6396 1.00684ZM52.2949 58.3555C55.4199 57.9648 58.5938 57.3301 61.8164 56.4512C65.0879 55.5723 68.2129 54.498 71.1914 53.2285C74.2188 51.9102 77.0508 50.4453 79.6875 48.834C82.3242 47.1738 84.6191 45.416 86.5723 43.5605C88.5742 41.6562 90.1367 39.6543 91.2598 37.5547C92.3828 35.4063 92.9443 33.1846 92.9443 30.8896C92.9443 29.1807 92.5049 27.7891 91.626 26.7148C90.7471 25.5918 89.5996 24.7373 88.1836 24.1514C86.7676 23.5654 85.1562 23.1748 83.3496 22.9795C81.543 22.7842 79.6875 22.7109 77.7832 22.7598C73.291 22.9062 68.2373 23.6387 62.6221 24.957C61.1572 30.4746 59.7656 35.5283 58.4473 40.1182C57.8613 42.0713 57.2754 44.0244 56.6895 45.9775C56.1035 47.9307 55.542 49.7373 55.0049 51.3975C54.4678 53.0576 53.9551 54.5225 53.4668 55.792C53.0273 57.0127 52.6367 57.8672 52.2949 58.3555ZM234.448 30.0107C229.712 28.2529 224.878 27.2031 219.946 26.8613C215.015 26.5195 210.107 26.7393 205.225 27.5205C200.391 28.2529 195.654 29.4736 191.016 31.1826C186.377 32.8428 181.958 34.8203 177.759 37.1152C173.608 39.3613 169.775 41.8516 166.26 44.5859C162.744 47.2715 159.692 50.0303 157.104 52.8623C153.149 57.1592 150.244 61.5049 148.389 65.8994C146.533 70.2451 145.679 74.2734 145.825 77.9844C145.972 81.6465 147.095 84.7715 149.194 87.3594C151.343 89.9473 154.419 91.5586 158.423 92.1934C161.108 92.6816 163.77 92.8281 166.406 92.6328C169.092 92.3887 171.68 91.9492 174.17 91.3145C176.66 90.6309 179.004 89.7764 181.201 88.751C183.398 87.7256 185.376 86.6514 187.134 85.5283C188.892 84.3564 190.381 83.209 191.602 82.0859C192.822 80.9629 193.701 79.9375 194.238 79.0098C192.383 79.2539 190.283 79.5713 187.939 79.9619C185.645 80.3525 183.276 80.7676 180.835 81.207C178.442 81.5977 176.074 82.0127 173.73 82.4521C171.387 82.8916 169.287 83.3066 167.432 83.6973C165.576 84.0391 164.038 84.332 162.817 84.5762C161.646 84.7715 160.986 84.8936 160.84 84.9424C161.133 84.21 161.475 83.3311 161.865 82.3057C162.305 81.2803 162.769 80.1572 163.257 78.9365C163.745 77.7158 164.233 76.4463 164.722 75.1279C165.259 73.8096 165.771 72.5156 166.26 71.2461C167.432 68.2676 168.628 65.1426 169.849 61.8711C171.313 61.5781 173.511 61.1875 176.44 60.6992C179.419 60.1621 182.812 59.5762 186.621 58.9414C190.479 58.2578 194.58 57.5498 198.926 56.8174C203.32 56.0361 207.69 55.2793 212.036 54.5469C216.382 53.7656 220.557 53.0576 224.561 52.4229C228.613 51.7393 232.153 51.1533 235.181 50.665C238.257 50.1279 240.698 49.7373 242.505 49.4932C244.36 49.2002 245.264 49.0781 245.215 49.127C244.971 49.6641 244.629 50.4209 244.189 51.3975C243.799 52.374 243.335 53.4727 242.798 54.6934C242.261 55.9141 241.675 57.2324 241.04 58.6484C240.454 60.0156 239.868 61.3828 239.282 62.75C237.866 65.9727 236.328 69.4883 234.668 73.2969C234.033 73.2969 233.13 73.3945 231.958 73.5898C230.835 73.7363 229.688 73.9316 228.516 74.1758C227.148 74.4199 225.684 74.7129 224.121 75.0547C222.949 77.3008 221.68 79.6689 220.312 82.1592C218.994 84.6006 217.31 87.1152 215.259 89.7031C213.208 92.291 210.645 94.9033 207.568 97.54C204.541 100.177 200.757 102.789 196.216 105.377C191.724 108.014 186.865 110.455 181.641 112.701C176.416 114.947 170.972 116.681 165.308 117.901C159.692 119.073 153.882 119.586 147.876 119.439C141.919 119.342 135.913 118.243 129.858 116.144C125.854 114.728 122.632 112.677 120.19 109.991C117.798 107.257 116.064 104.107 114.99 100.543C113.916 96.9297 113.477 93.0234 113.672 88.8242C113.916 84.5762 114.673 80.2305 115.942 75.7871C117.261 71.2949 119.067 66.8271 121.362 62.3838C123.657 57.8916 126.343 53.6191 129.419 49.5664C132.544 45.5137 136.328 41.1924 140.771 36.6025C145.264 32.0127 150.342 27.5938 156.006 23.3457C161.67 19.0977 167.896 15.2158 174.683 11.7002C181.47 8.13574 188.721 5.37695 196.436 3.42383C204.15 1.4707 212.28 0.494141 220.825 0.494141C229.419 0.494141 238.354 1.91016 247.632 4.74219C247.144 5.81641 246.582 7.0127 245.947 8.33105C245.312 9.60059 244.629 10.9189 243.896 12.2861C243.213 13.6533 242.48 15.0449 241.699 16.4609C240.967 17.877 240.259 19.2441 239.575 20.5625C237.964 23.6387 236.255 26.7881 234.448 30.0107ZM278.174 7.59863C280.957 6.62207 283.936 5.69434 287.109 4.81543C289.844 4.03418 292.944 3.27734 296.411 2.54492C299.927 1.76367 303.589 1.10449 307.397 0.567383C306.812 1.83691 306.177 3.74121 305.493 6.28027C304.81 8.81934 304.102 11.7979 303.369 15.2158C302.637 18.585 301.904 22.2959 301.172 26.3486C300.439 30.3525 299.731 34.5029 299.048 38.7998C298.364 43.0967 297.729 47.418 297.144 51.7637C296.606 56.0605 296.118 60.1865 295.679 64.1416C295.288 68.0479 294.995 71.6855 294.8 75.0547C294.604 78.4238 294.556 81.2803 294.653 83.624C295.19 82.6963 296.216 80.9141 297.729 78.2773C299.243 75.5918 301.074 72.3691 303.223 68.6094C305.42 64.8496 307.812 60.6992 310.4 56.1582C313.037 51.6172 315.747 47.0029 318.53 42.3154C321.313 37.6279 324.072 32.9893 326.807 28.3994C329.541 23.8096 332.104 19.6104 334.497 15.8018C336.89 11.9932 339.014 8.72168 340.869 5.9873C342.725 3.25293 344.165 1.37305 345.19 0.347656C347.485 0.640625 349.927 1.08008 352.515 1.66602C354.712 2.20312 357.227 2.93555 360.059 3.86328C362.891 4.74219 365.845 5.91406 368.921 7.37891C367.407 10.3574 365.869 14.3857 364.307 19.4639C362.744 24.542 361.23 30.2305 359.766 36.5293C358.301 42.8281 356.934 49.5176 355.664 56.5977C354.395 63.6777 353.296 70.6846 352.368 77.6182C351.44 84.5518 350.732 91.1924 350.244 97.54C349.805 103.888 349.658 109.503 349.805 114.386C348.34 115.362 346.338 116.192 343.799 116.876C341.26 117.56 338.599 118.121 335.815 118.561C333.081 119 330.42 119.342 327.832 119.586C325.244 119.83 323.12 120.001 321.46 120.099C321.362 118.39 321.484 115.899 321.826 112.628C322.217 109.356 322.729 105.646 323.364 101.495C324.048 97.2959 324.829 92.8037 325.708 88.0186C326.636 83.2334 327.612 78.4971 328.638 73.8096C329.663 69.0732 330.713 64.5322 331.787 60.1865C332.91 55.8408 334.009 52.0078 335.083 48.6875C334.253 49.4688 333.203 50.7871 331.934 52.6426C330.664 54.498 329.224 56.7197 327.612 59.3076C326.05 61.8955 324.365 64.7764 322.559 67.9502C320.752 71.0752 318.921 74.3223 317.065 77.6914C315.259 81.0605 313.452 84.4541 311.646 87.8721C309.839 91.29 308.13 94.5615 306.519 97.6865C304.907 100.763 303.442 103.619 302.124 106.256C300.806 108.844 299.707 111.041 298.828 112.848C295.02 113.58 291.357 114.288 287.842 114.972C286.328 115.265 284.766 115.582 283.154 115.924C281.592 116.217 280.054 116.534 278.54 116.876C277.026 117.169 275.586 117.462 274.219 117.755C272.9 118.048 271.729 118.316 270.703 118.561C270.508 117.633 270.41 115.973 270.41 113.58C270.41 111.188 270.483 108.307 270.63 104.938C270.825 101.568 271.094 97.833 271.436 93.7314C271.777 89.6299 272.192 85.4307 272.681 81.1338C273.218 76.8369 273.804 72.5645 274.438 68.3164C275.073 64.0684 275.806 60.0889 276.636 56.3779C275.562 57.7939 274.292 59.9424 272.827 62.8232C271.411 65.7041 269.873 69.0488 268.213 72.8574C266.602 76.6172 264.941 80.6699 263.232 85.0156C261.572 89.3125 259.937 93.6094 258.325 97.9062C256.763 102.154 255.322 106.231 254.004 110.138C252.686 114.044 251.587 117.438 250.708 120.318C249.78 119.781 248.438 119.244 246.68 118.707C244.971 118.121 242.969 117.584 240.674 117.096C238.428 116.607 235.962 116.168 233.276 115.777C230.64 115.387 227.954 115.069 225.22 114.825C226.001 112.286 227.197 109.063 228.809 105.157C230.42 101.251 232.3 96.9053 234.448 92.1201C236.646 87.335 239.038 82.2568 241.626 76.8857C244.214 71.5146 246.875 66.0947 249.609 60.626C252.344 55.1084 255.078 49.6885 257.812 44.3662C260.596 38.9951 263.232 33.9902 265.723 29.3516C268.262 24.6641 270.605 20.4404 272.754 16.6807C274.902 12.9209 276.709 9.89355 278.174 7.59863Z" fill="#302B44"/>
</svg>
